HIERARCHY
ROOT reference
{
  OFFSET 0 0 0
  CHANNELS 6 Xposition Yposition Zposition Zrotation Xrotation Yrotation
  JOINT Hips
  {
    OFFSET -12.1152 71.2066 -15.6319
    CHANNELS 6 Xposition Yposition Zposition Zrotation Xrotation Yrotation
    JOINT Spine
    {
      OFFSET 0 7.52385 0
      CHANNELS 6 Xposition Yposition Zposition Zrotation Xrotation Yrotation
      JOINT Spine1
      {
        OFFSET 0 21.7843 0
        CHANNELS 6 Xposition Yposition Zposition Zrotation Xrotation Yrotation
        JOINT Neck
        {
          OFFSET 0 21.6948 1.97225
          CHANNELS 6 Xposition Yposition Zposition Zrotation Xrotation Yrotation
          JOINT Head
          {
            OFFSET 0 12.8456 -1.83509
            CHANNELS 6 Xposition Yposition Zposition Zrotation Xrotation Yrotation
            End Site
            {
              OFFSET 0 22.9386 0
            }
          }
        }
        JOINT LeftShoulder
        {
          OFFSET 3.65748 19.7052 -0.211895
          CHANNELS 6 Xposition Yposition Zposition Zrotation Xrotation Yrotation
          JOINT LeftArm
          {
            OFFSET 11.1953 0 0
            CHANNELS 6 Xposition Yposition Zposition Zrotation Xrotation Yrotation
            JOINT LeftForeArm
            {
              OFFSET 29.6607 0 0
              CHANNELS 6 Xposition Yposition Zposition Zrotation Xrotation Yrotation
              JOINT LeftHand
              {
                OFFSET 23.3476 0 0
                CHANNELS 6 Xposition Yposition Zposition Zrotation Xrotation Yrotation
                End Site
                {
                  OFFSET 13.7631 0 0
                }
              }
            }
          }
        }
        JOINT RightShoulder
        {
          OFFSET -3.68053 19.7052 -0.211895
          CHANNELS 6 Xposition Yposition Zposition Zrotation Xrotation Yrotation
          JOINT RightArm
          {
            OFFSET -11.1953 0 0
            CHANNELS 6 Xposition Yposition Zposition Zrotation Xrotation Yrotation
            JOINT RightForeArm
            {
              OFFSET -29.6607 0 0
              CHANNELS 6 Xposition Yposition Zposition Zrotation Xrotation Yrotation
              JOINT RightHand
              {
                OFFSET -23.3476 0 0
                CHANNELS 6 Xposition Yposition Zposition Zrotation Xrotation Yrotation
                End Site
                {
                  OFFSET -13.7631 0 0
                }
              }
            }
          }
        }
      }
    }
    JOINT LeftUpLeg
    {
      OFFSET 9.17543 0 0
      CHANNELS 6 Xposition Yposition Zposition Zrotation Xrotation Yrotation
      JOINT LeftLeg
      {
        OFFSET 0 -39.1216 0
        CHANNELS 6 Xposition Yposition Zposition Zrotation Xrotation Yrotation
        JOINT LeftFoot
        {
          OFFSET 0 -35.3569 0
          CHANNELS 6 Xposition Yposition Zposition Zrotation Xrotation Yrotation
          JOINT LeftToeBase
          {
            OFFSET 0 -5.96403 13.7631
            CHANNELS 6 Xposition Yposition Zposition Zrotation Xrotation Yrotation
            End Site
            {
              OFFSET 0 0 3.67017
            }
          }
        }
      }
    }
    JOINT RightUpLeg
    {
      OFFSET -9.17543 0 0
      CHANNELS 6 Xposition Yposition Zposition Zrotation Xrotation Yrotation
      JOINT RightLeg
      {
        OFFSET 0 -39.1216 0
        CHANNELS 6 Xposition Yposition Zposition Zrotation Xrotation Yrotation
        JOINT RightFoot
        {
          OFFSET 0 -35.3569 0
          CHANNELS 6 Xposition Yposition Zposition Zrotation Xrotation Yrotation
          JOINT RightToeBase
          {
            OFFSET 0 -5.96403 13.7631
            CHANNELS 6 Xposition Yposition Zposition Zrotation Xrotation Yrotation
            End Site
            {
              OFFSET 0 0 3.67017
            }
          }
        }
      }
    }
  }
}
MOTION
Frames:	4
Frame Time:	0.004
0 0 0 0 0 -0 -24.0088 68.83 -163.415 0.542805 -6.28047 10.435 0 7.52385 2.84217e-014 4.27364 14.9503 -6.46173 -3.55271e-015 21.7843 0 1.77937 18.8016 -6.19517 0 21.6948 1.97225 0.168923 12.3339 -4.12463 0 12.8456 -1.83509 3.74492 -10.9056 -3.41758 3.65748 19.7052 -0.211895 -1.37908 16.5723 -14.7643 11.1953 1.42109e-014 2.84217e-014 -32.7552 38.0093 -30.0918 29.6607 2.84217e-014 0 25.6496 -18.3394 -37.296 23.3476 0 -3.55271e-015 1.7272 -9.73946 3.53963 -3.68053 19.7052 -0.211895 4.47639 18.2388 2.25859 -11.1953 1.42109e-014 0 29.3063 46.3788 38.5156 -29.6607 0 0 -18.1186 -17.2788 32.9423 -23.3476 -1.42109e-014 -1.42109e-014 -0.990808 -12.0171 -3.90205 9.17543 1.42109e-014 2.84217e-014 5.29123 -8.85111 -1.3909 0 -39.1216 0 -7.9004 70.162 -3.80231 -3.55271e-015 -35.3569 0 6.15856 -17.0121 10.522 1.77636e-015 -5.96403 13.7631 -7.95139e-016 -3.18055e-015 -1.59028e-015 -9.17543 2.84217e-014 2.84217e-014 -1.15717 -25.2148 -0.119004 -7.10543e-015 -39.1216 0 14.1094 58.367 -5.51747 -3.55271e-015 -35.3569 -2.84217e-014 -3.91905 -24.7358 -19.098 0 -5.96403 13.7631 -4.96962e-017 7.95139e-016 7.95139e-016 
0 0 0 0 0 -0 -24.0671 68.8003 -163.229 0.593126 -6.42903 10.5519 0 7.52385 0 4.25818 14.9806 -6.38988 1.77636e-015 21.7843 0 1.81683 18.893 -6.1319 0 21.6948 1.97225 0.0792961 12.2692 -4.22051 0 12.8456 -1.83509 3.89004 -10.7573 -3.48491 3.65748 19.7052 -0.211895 -1.50484 16.7231 -14.6807 11.1953 0 0 -32.6959 37.816 -30.0311 29.6607 -2.84217e-014 0 25.3305 -18.2227 -37.3497 23.3476 -2.84217e-014 -3.55271e-015 1.72739 -9.71566 3.63962 -3.68053 19.7052 -0.211895 4.52698 18.2712 2.30436 -11.1953 -1.42109e-014 0 28.8404 46.2457 38.8008 -29.6607 0 0 -18.1815 -17.3895 32.9808 -23.3476 -2.84217e-014 1.42109e-014 -0.949177 -12.1064 -3.91811 9.17543 0 0 5.40652 -9.14817 -1.44594 3.55271e-015 -39.1216 -2.84217e-014 -8.29791 70.9334 -3.60241 0 -35.3569 0 5.97544 -16.9491 10.7013 5.32907e-015 -5.96403 13.7631 -7.95139e-016 3.18055e-015 -1.59028e-015 -9.17543 0 2.84217e-014 -1.1362 -24.9969 -0.135824 3.55271e-015 -39.1216 0 14.2298 58.5476 -5.51903 -7.10543e-015 -35.3569 2.84217e-014 -3.96348 -24.9166 -19.2497 0 -5.96403 13.7631 -9.44227e-016 0 -7.95139e-016 
0 0 0 0 0 -0 -24.1267 68.7713 -163.052 0.644425 -6.55894 10.6682 3.55271e-015 7.52385 0 4.23698 14.9795 -6.31876 1.77636e-015 21.7843 0 1.83482 19.0074 -6.06847 -3.55271e-015 21.6948 1.97225 0.053041 12.1936 -4.30176 0 12.8456 -1.83509 3.96161 -10.5857 -3.55754 3.65748 19.7052 -0.211895 -1.50808 16.7702 -14.6856 11.1953 0 -2.84217e-014 -32.7231 37.977 -29.8646 29.6607 0 1.42109e-014 25.246 -18.3198 -37.3164 23.3476 -2.84217e-014 0 1.82879 -9.85109 3.64164 -3.68053 19.7052 -0.211895 4.50114 18.1472 2.41994 -11.1953 -1.42109e-014 -2.84217e-014 28.5669 46.2613 38.969 -29.6607 2.84217e-014 0 -18.2868 -17.5482 32.9331 -23.3476 1.42109e-014 0 -0.905211 -12.2465 -4.03393 9.17543 1.42109e-014 2.84217e-014 5.51775 -9.46797 -1.51612 3.55271e-015 -39.1216 -2.84217e-014 -8.86015 71.7144 -3.26953 -1.77636e-015 -35.3569 0 5.77122 -16.9339 11.0943 0 -5.96403 13.7631 -2.38542e-015 -3.18055e-015 -3.18055e-015 -9.17543 0 2.84217e-014 -1.22001 -24.8064 0.039855 -7.10543e-015 -39.1216 1.42109e-014 15.022 58.7 -5.62291 0 -35.3569 0 -4.18528 -25.1064 -19.9995 0 -5.96403 13.7631 -3.97569e-016 -3.97569e-016 -0 
0 0 0 0 0 -0 -24.1787 68.7421 -162.874 0.713405 -6.68144 10.813 0 7.52385 0 4.23721 14.9714 -6.27565 -1.77636e-015 21.7843 0 1.76 19.1093 -6.01472 -3.55271e-015 21.6948 1.97225 0.198759 12.1455 -4.37768 0 12.8456 -1.83509 3.88366 -10.4395 -3.66512 3.65748 19.7052 -0.211895 -1.44234 16.8292 -14.6606 11.1953 0 0 -32.8034 38.09 -29.7088 29.6607 2.84217e-014 0 25.0176 -18.3577 -37.3059 23.3476 0 -3.55271e-015 2.40992 -9.95033 3.86638 -3.68053 19.7052 -0.211895 4.56503 18.0823 2.56068 -11.1953 1.42109e-014 0 28.278 46.146 39.1028 -29.6607 2.84217e-014 -1.42109e-014 -18.3011 -17.6569 32.895 -23.3476 1.42109e-014 0 -0.886886 -12.3623 -3.83186 9.17543 -1.42109e-014 0 5.58879 -9.78958 -1.6307 -3.55271e-015 -39.1216 0 -9.49823 72.3979 -2.70909 -1.77636e-015 -35.3569 0 5.72179 -16.9421 11.1041 -7.10543e-015 -5.96403 13.7631 7.95139e-016 -3.18055e-015 -0 -9.17543 -2.84217e-014 0 -1.22408 -24.5713 0.004151 0 -39.1216 1.42109e-014 15.1238 58.8211 -5.64108 -7.10543e-015 -35.3569 2.84217e-014 -4.30547 -25.3378 -20.1194 7.10543e-015 -5.96403 13.7631 -1.98785e-016 0 -1.59028e-015 
